# xmcd
#
# Track frame offsets:
#	150
#	16272
#	35892
#	60770
#	82877
#	104792
#	120827
#	140597
#	163487
#	181607
#
# Disc length: 2672 seconds
#
# Revision: 0
# Processed by: cddbd v1.5.2PL0 Copyright (c) Steve Scherf et al.
# Submitted via: EZCDAudioConverter 6.0.5.1
#
DISCID=7b0a6e0a
DTITLE=Raymond Fontaine - Ma Vie N'a Plus D'espoir
DYEAR=1993
DGENRE=Country
TTITLE0=Ma vie n'a plus d'espoir
TTITLE1=Vide à combler
TTITLE2=Un été de ma jeunesse
TTITLE3=Tu es rusé
TTITLE4=Le Roi du 18 roues
TTITLE5=Je suis fou du Rock'N Roll
TTITLE6=Visage du sud
TTITLE7=Tu es ma femme à moi
TTITLE8=Seul à rêver
TTITLE9=Elle est ma merveille
EXTD=
EXTT0=
EXTT1=
EXTT2=
EXTT3=
EXTT4=
EXTT5=
EXTT6=
EXTT7=
EXTT8=
EXTT9=
PLAYORDER=
